<mxfile host="app.diagrams.net" modified="2024-04-11T14:03:11.503Z" agent="Mozilla/5.0 (Windows NT 10.0; Win64; x64; rv:124.0) Gecko/20100101 Firefox/124.0" etag="CPp4m6YZpGudbjM5y04u" version="24.1.0" type="github">
  <diagram name="第 1 页" id="unkT4ua1M5SrR_OQDvMt">
    <mxGraphModel dx="2074" dy="1106" grid="1" gridSize="10" guides="1" tooltips="1" connect="1" arrows="1" fold="1" page="1" pageScale="1" pageWidth="827" pageHeight="1169" math="0" shadow="0">
      <root>
        <mxCell id="0" />
        <mxCell id="1" parent="0" />
        <mxCell id="tnwIW6Irmv3vunzLVUFS-34" style="rounded=0;orthogonalLoop=1;jettySize=auto;html=1;endArrow=none;endFill=0;" edge="1" parent="1" source="tnwIW6Irmv3vunzLVUFS-11" target="tnwIW6Irmv3vunzLVUFS-31">
          <mxGeometry relative="1" as="geometry" />
        </mxCell>
        <mxCell id="tnwIW6Irmv3vunzLVUFS-11" value="" style="ellipse;whiteSpace=wrap;html=1;aspect=fixed;fillColor=none;" vertex="1" parent="1">
          <mxGeometry x="40" y="490" width="350" height="350" as="geometry" />
        </mxCell>
        <mxCell id="tnwIW6Irmv3vunzLVUFS-32" style="rounded=0;orthogonalLoop=1;jettySize=auto;html=1;endArrow=none;endFill=0;" edge="1" parent="1" source="tnwIW6Irmv3vunzLVUFS-10" target="tnwIW6Irmv3vunzLVUFS-31">
          <mxGeometry relative="1" as="geometry" />
        </mxCell>
        <mxCell id="tnwIW6Irmv3vunzLVUFS-10" value="" style="ellipse;whiteSpace=wrap;html=1;aspect=fixed;fillColor=none;" vertex="1" parent="1">
          <mxGeometry x="40" y="18" width="362" height="362" as="geometry" />
        </mxCell>
        <mxCell id="tnwIW6Irmv3vunzLVUFS-39" style="rounded=0;orthogonalLoop=1;jettySize=auto;html=1;endArrow=none;endFill=0;" edge="1" parent="1" source="tnwIW6Irmv3vunzLVUFS-1" target="tnwIW6Irmv3vunzLVUFS-18">
          <mxGeometry relative="1" as="geometry" />
        </mxCell>
        <mxCell id="tnwIW6Irmv3vunzLVUFS-1" value="前端负载均衡" style="sketch=0;outlineConnect=0;fontColor=#232F3E;gradientColor=none;fillColor=#232F3D;strokeColor=none;dashed=0;verticalLabelPosition=bottom;verticalAlign=top;align=center;html=1;fontSize=12;fontStyle=0;aspect=fixed;pointerEvents=1;shape=mxgraph.aws4.traditional_server;" vertex="1" parent="1">
          <mxGeometry x="650" y="380" width="45" height="78" as="geometry" />
        </mxCell>
        <mxCell id="tnwIW6Irmv3vunzLVUFS-2" value="" style="sketch=0;outlineConnect=0;fontColor=#232F3E;gradientColor=none;fillColor=#232F3D;strokeColor=none;dashed=0;verticalLabelPosition=bottom;verticalAlign=top;align=center;html=1;fontSize=12;fontStyle=0;aspect=fixed;pointerEvents=1;shape=mxgraph.aws4.client;" vertex="1" parent="1">
          <mxGeometry x="100" y="70" width="78" height="76" as="geometry" />
        </mxCell>
        <mxCell id="tnwIW6Irmv3vunzLVUFS-3" value="" style="sketch=0;outlineConnect=0;fontColor=#232F3E;gradientColor=none;fillColor=#232F3D;strokeColor=none;dashed=0;verticalLabelPosition=bottom;verticalAlign=top;align=center;html=1;fontSize=12;fontStyle=0;aspect=fixed;pointerEvents=1;shape=mxgraph.aws4.client;" vertex="1" parent="1">
          <mxGeometry x="260" y="70" width="78" height="76" as="geometry" />
        </mxCell>
        <mxCell id="tnwIW6Irmv3vunzLVUFS-4" value="" style="sketch=0;outlineConnect=0;fontColor=#232F3E;gradientColor=none;fillColor=#232F3D;strokeColor=none;dashed=0;verticalLabelPosition=bottom;verticalAlign=top;align=center;html=1;fontSize=12;fontStyle=0;aspect=fixed;pointerEvents=1;shape=mxgraph.aws4.client;" vertex="1" parent="1">
          <mxGeometry x="110" y="170" width="78" height="76" as="geometry" />
        </mxCell>
        <mxCell id="tnwIW6Irmv3vunzLVUFS-5" value="" style="sketch=0;outlineConnect=0;fontColor=#232F3E;gradientColor=none;fillColor=#232F3D;strokeColor=none;dashed=0;verticalLabelPosition=bottom;verticalAlign=top;align=center;html=1;fontSize=12;fontStyle=0;aspect=fixed;pointerEvents=1;shape=mxgraph.aws4.client;" vertex="1" parent="1">
          <mxGeometry x="170" y="290" width="78" height="76" as="geometry" />
        </mxCell>
        <mxCell id="tnwIW6Irmv3vunzLVUFS-6" value="" style="sketch=0;outlineConnect=0;fontColor=#232F3E;gradientColor=none;fillColor=#232F3D;strokeColor=none;dashed=0;verticalLabelPosition=bottom;verticalAlign=top;align=center;html=1;fontSize=12;fontStyle=0;aspect=fixed;pointerEvents=1;shape=mxgraph.aws4.client;" vertex="1" parent="1">
          <mxGeometry x="70" y="610" width="78" height="76" as="geometry" />
        </mxCell>
        <mxCell id="tnwIW6Irmv3vunzLVUFS-7" value="" style="sketch=0;outlineConnect=0;fontColor=#232F3E;gradientColor=none;fillColor=#232F3D;strokeColor=none;dashed=0;verticalLabelPosition=bottom;verticalAlign=top;align=center;html=1;fontSize=12;fontStyle=0;aspect=fixed;pointerEvents=1;shape=mxgraph.aws4.client;" vertex="1" parent="1">
          <mxGeometry x="170" y="500" width="78" height="76" as="geometry" />
        </mxCell>
        <mxCell id="tnwIW6Irmv3vunzLVUFS-8" value="" style="sketch=0;outlineConnect=0;fontColor=#232F3E;gradientColor=none;fillColor=#232F3D;strokeColor=none;dashed=0;verticalLabelPosition=bottom;verticalAlign=top;align=center;html=1;fontSize=12;fontStyle=0;aspect=fixed;pointerEvents=1;shape=mxgraph.aws4.client;" vertex="1" parent="1">
          <mxGeometry x="148" y="740" width="78" height="76" as="geometry" />
        </mxCell>
        <mxCell id="tnwIW6Irmv3vunzLVUFS-9" value="" style="sketch=0;outlineConnect=0;fontColor=#232F3E;gradientColor=none;fillColor=#232F3D;strokeColor=none;dashed=0;verticalLabelPosition=bottom;verticalAlign=top;align=center;html=1;fontSize=12;fontStyle=0;aspect=fixed;pointerEvents=1;shape=mxgraph.aws4.mobile_client;" vertex="1" parent="1">
          <mxGeometry x="279" y="690" width="41" height="78" as="geometry" />
        </mxCell>
        <mxCell id="tnwIW6Irmv3vunzLVUFS-33" style="rounded=0;orthogonalLoop=1;jettySize=auto;html=1;endArrow=none;endFill=0;" edge="1" parent="1" source="tnwIW6Irmv3vunzLVUFS-12" target="tnwIW6Irmv3vunzLVUFS-31">
          <mxGeometry relative="1" as="geometry" />
        </mxCell>
        <mxCell id="tnwIW6Irmv3vunzLVUFS-12" value="" style="ellipse;whiteSpace=wrap;html=1;aspect=fixed;fillColor=none;" vertex="1" parent="1">
          <mxGeometry x="44" y="274" width="346" height="346" as="geometry" />
        </mxCell>
        <mxCell id="tnwIW6Irmv3vunzLVUFS-13" value="" style="sketch=0;outlineConnect=0;fontColor=#232F3E;gradientColor=none;fillColor=#232F3D;strokeColor=none;dashed=0;verticalLabelPosition=bottom;verticalAlign=top;align=center;html=1;fontSize=12;fontStyle=0;aspect=fixed;pointerEvents=1;shape=mxgraph.aws4.mobile_client;" vertex="1" parent="1">
          <mxGeometry x="100" y="400" width="41" height="78" as="geometry" />
        </mxCell>
        <mxCell id="tnwIW6Irmv3vunzLVUFS-50" style="rounded=0;orthogonalLoop=1;jettySize=auto;html=1;endArrow=none;endFill=0;" edge="1" parent="1" source="tnwIW6Irmv3vunzLVUFS-14" target="tnwIW6Irmv3vunzLVUFS-31">
          <mxGeometry relative="1" as="geometry" />
        </mxCell>
        <mxCell id="tnwIW6Irmv3vunzLVUFS-14" value="" style="sketch=0;outlineConnect=0;fontColor=#232F3E;gradientColor=none;fillColor=#232F3D;strokeColor=none;dashed=0;verticalLabelPosition=bottom;verticalAlign=top;align=center;html=1;fontSize=12;fontStyle=0;aspect=fixed;pointerEvents=1;shape=mxgraph.aws4.client;" vertex="1" parent="1">
          <mxGeometry x="460" y="94" width="78" height="76" as="geometry" />
        </mxCell>
        <mxCell id="tnwIW6Irmv3vunzLVUFS-37" style="rounded=0;orthogonalLoop=1;jettySize=auto;html=1;endArrow=none;endFill=0;" edge="1" parent="1" source="tnwIW6Irmv3vunzLVUFS-15" target="tnwIW6Irmv3vunzLVUFS-1">
          <mxGeometry relative="1" as="geometry" />
        </mxCell>
        <mxCell id="tnwIW6Irmv3vunzLVUFS-15" value="前端3" style="sketch=0;outlineConnect=0;fontColor=#232F3E;gradientColor=none;fillColor=#232F3D;strokeColor=none;dashed=0;verticalLabelPosition=bottom;verticalAlign=top;align=center;html=1;fontSize=12;fontStyle=0;aspect=fixed;pointerEvents=1;shape=mxgraph.aws4.servers;" vertex="1" parent="1">
          <mxGeometry x="743" y="519" width="78" height="78" as="geometry" />
        </mxCell>
        <mxCell id="tnwIW6Irmv3vunzLVUFS-36" style="rounded=0;orthogonalLoop=1;jettySize=auto;html=1;endArrow=none;endFill=0;" edge="1" parent="1" source="tnwIW6Irmv3vunzLVUFS-16" target="tnwIW6Irmv3vunzLVUFS-1">
          <mxGeometry relative="1" as="geometry" />
        </mxCell>
        <mxCell id="tnwIW6Irmv3vunzLVUFS-16" value="前端2" style="sketch=0;outlineConnect=0;fontColor=#232F3E;gradientColor=none;fillColor=#232F3D;strokeColor=none;dashed=0;verticalLabelPosition=bottom;verticalAlign=top;align=center;html=1;fontSize=12;fontStyle=0;aspect=fixed;pointerEvents=1;shape=mxgraph.aws4.servers;" vertex="1" parent="1">
          <mxGeometry x="632.5" y="517" width="80" height="80" as="geometry" />
        </mxCell>
        <mxCell id="tnwIW6Irmv3vunzLVUFS-35" style="rounded=0;orthogonalLoop=1;jettySize=auto;html=1;endArrow=none;endFill=0;" edge="1" parent="1" source="tnwIW6Irmv3vunzLVUFS-17" target="tnwIW6Irmv3vunzLVUFS-1">
          <mxGeometry relative="1" as="geometry" />
        </mxCell>
        <mxCell id="tnwIW6Irmv3vunzLVUFS-17" value="前端1" style="sketch=0;outlineConnect=0;fontColor=#232F3E;gradientColor=none;fillColor=#232F3D;strokeColor=none;dashed=0;verticalLabelPosition=bottom;verticalAlign=top;align=center;html=1;fontSize=12;fontStyle=0;aspect=fixed;pointerEvents=1;shape=mxgraph.aws4.servers;" vertex="1" parent="1">
          <mxGeometry x="524" y="519" width="78" height="78" as="geometry" />
        </mxCell>
        <mxCell id="tnwIW6Irmv3vunzLVUFS-40" style="rounded=0;orthogonalLoop=1;jettySize=auto;html=1;endArrow=none;endFill=0;" edge="1" parent="1" source="tnwIW6Irmv3vunzLVUFS-18" target="tnwIW6Irmv3vunzLVUFS-20">
          <mxGeometry relative="1" as="geometry" />
        </mxCell>
        <mxCell id="tnwIW6Irmv3vunzLVUFS-41" style="rounded=0;orthogonalLoop=1;jettySize=auto;html=1;endArrow=none;endFill=0;" edge="1" parent="1" source="tnwIW6Irmv3vunzLVUFS-18" target="tnwIW6Irmv3vunzLVUFS-21">
          <mxGeometry relative="1" as="geometry" />
        </mxCell>
        <mxCell id="tnwIW6Irmv3vunzLVUFS-42" style="rounded=0;orthogonalLoop=1;jettySize=auto;html=1;endArrow=none;endFill=0;" edge="1" parent="1" source="tnwIW6Irmv3vunzLVUFS-18" target="tnwIW6Irmv3vunzLVUFS-19">
          <mxGeometry relative="1" as="geometry" />
        </mxCell>
        <mxCell id="tnwIW6Irmv3vunzLVUFS-18" value="后端防火墙/负载均衡" style="sketch=0;outlineConnect=0;fontColor=#232F3E;gradientColor=none;fillColor=#232F3D;strokeColor=none;dashed=0;verticalLabelPosition=bottom;verticalAlign=top;align=center;html=1;fontSize=12;fontStyle=0;aspect=fixed;pointerEvents=1;shape=mxgraph.aws4.traditional_server;" vertex="1" parent="1">
          <mxGeometry x="782" y="380" width="45" height="78" as="geometry" />
        </mxCell>
        <mxCell id="tnwIW6Irmv3vunzLVUFS-43" style="rounded=0;orthogonalLoop=1;jettySize=auto;html=1;endArrow=none;endFill=0;" edge="1" parent="1" source="tnwIW6Irmv3vunzLVUFS-19" target="tnwIW6Irmv3vunzLVUFS-28">
          <mxGeometry relative="1" as="geometry" />
        </mxCell>
        <mxCell id="tnwIW6Irmv3vunzLVUFS-19" value="后端1" style="sketch=0;outlineConnect=0;fontColor=#232F3E;gradientColor=none;fillColor=#232F3D;strokeColor=none;dashed=0;verticalLabelPosition=bottom;verticalAlign=top;align=center;html=1;fontSize=12;fontStyle=0;aspect=fixed;pointerEvents=1;shape=mxgraph.aws4.servers;" vertex="1" parent="1">
          <mxGeometry x="920" y="257" width="78" height="78" as="geometry" />
        </mxCell>
        <mxCell id="tnwIW6Irmv3vunzLVUFS-44" style="rounded=0;orthogonalLoop=1;jettySize=auto;html=1;endArrow=none;endFill=0;" edge="1" parent="1" source="tnwIW6Irmv3vunzLVUFS-20" target="tnwIW6Irmv3vunzLVUFS-28">
          <mxGeometry relative="1" as="geometry" />
        </mxCell>
        <mxCell id="tnwIW6Irmv3vunzLVUFS-20" value="后端2" style="sketch=0;outlineConnect=0;fontColor=#232F3E;gradientColor=none;fillColor=#232F3D;strokeColor=none;dashed=0;verticalLabelPosition=bottom;verticalAlign=top;align=center;html=1;fontSize=12;fontStyle=0;aspect=fixed;pointerEvents=1;shape=mxgraph.aws4.servers;" vertex="1" parent="1">
          <mxGeometry x="919" y="381" width="80" height="80" as="geometry" />
        </mxCell>
        <mxCell id="tnwIW6Irmv3vunzLVUFS-45" style="rounded=0;orthogonalLoop=1;jettySize=auto;html=1;endArrow=none;endFill=0;" edge="1" parent="1" source="tnwIW6Irmv3vunzLVUFS-21" target="tnwIW6Irmv3vunzLVUFS-28">
          <mxGeometry relative="1" as="geometry" />
        </mxCell>
        <mxCell id="tnwIW6Irmv3vunzLVUFS-21" value="后端3" style="sketch=0;outlineConnect=0;fontColor=#232F3E;gradientColor=none;fillColor=#232F3D;strokeColor=none;dashed=0;verticalLabelPosition=bottom;verticalAlign=top;align=center;html=1;fontSize=12;fontStyle=0;aspect=fixed;pointerEvents=1;shape=mxgraph.aws4.servers;" vertex="1" parent="1">
          <mxGeometry x="920" y="503" width="78" height="78" as="geometry" />
        </mxCell>
        <mxCell id="tnwIW6Irmv3vunzLVUFS-51" style="rounded=0;orthogonalLoop=1;jettySize=auto;html=1;endArrow=none;endFill=0;" edge="1" parent="1" source="tnwIW6Irmv3vunzLVUFS-22" target="tnwIW6Irmv3vunzLVUFS-31">
          <mxGeometry relative="1" as="geometry" />
        </mxCell>
        <mxCell id="tnwIW6Irmv3vunzLVUFS-22" value="" style="sketch=0;outlineConnect=0;fontColor=#232F3E;gradientColor=none;fillColor=#232F3D;strokeColor=none;dashed=0;verticalLabelPosition=bottom;verticalAlign=top;align=center;html=1;fontSize=12;fontStyle=0;aspect=fixed;pointerEvents=1;shape=mxgraph.aws4.client;" vertex="1" parent="1">
          <mxGeometry x="590" y="94" width="78" height="76" as="geometry" />
        </mxCell>
        <mxCell id="tnwIW6Irmv3vunzLVUFS-47" style="rounded=0;orthogonalLoop=1;jettySize=auto;html=1;endArrow=none;endFill=0;" edge="1" parent="1" source="tnwIW6Irmv3vunzLVUFS-23" target="tnwIW6Irmv3vunzLVUFS-24">
          <mxGeometry relative="1" as="geometry" />
        </mxCell>
        <mxCell id="tnwIW6Irmv3vunzLVUFS-48" style="rounded=0;orthogonalLoop=1;jettySize=auto;html=1;endArrow=none;endFill=0;" edge="1" parent="1" source="tnwIW6Irmv3vunzLVUFS-23" target="tnwIW6Irmv3vunzLVUFS-25">
          <mxGeometry relative="1" as="geometry" />
        </mxCell>
        <mxCell id="tnwIW6Irmv3vunzLVUFS-49" style="rounded=0;orthogonalLoop=1;jettySize=auto;html=1;endArrow=none;endFill=0;" edge="1" parent="1" source="tnwIW6Irmv3vunzLVUFS-23" target="tnwIW6Irmv3vunzLVUFS-26">
          <mxGeometry relative="1" as="geometry" />
        </mxCell>
        <mxCell id="tnwIW6Irmv3vunzLVUFS-23" value="数据库服务器" style="sketch=0;outlineConnect=0;fontColor=#232F3E;gradientColor=none;fillColor=#232F3D;strokeColor=none;dashed=0;verticalLabelPosition=bottom;verticalAlign=top;align=center;html=1;fontSize=12;fontStyle=0;aspect=fixed;pointerEvents=1;shape=mxgraph.aws4.servers;" vertex="1" parent="1">
          <mxGeometry x="1190" y="381" width="78" height="78" as="geometry" />
        </mxCell>
        <mxCell id="tnwIW6Irmv3vunzLVUFS-24" value="用户数据" style="sketch=0;outlineConnect=0;fontColor=#232F3E;gradientColor=none;fillColor=#232F3D;strokeColor=none;dashed=0;verticalLabelPosition=bottom;verticalAlign=top;align=center;html=1;fontSize=12;fontStyle=0;aspect=fixed;pointerEvents=1;shape=mxgraph.aws4.generic_database;" vertex="1" parent="1">
          <mxGeometry x="1330" y="542.5" width="59" height="78" as="geometry" />
        </mxCell>
        <mxCell id="tnwIW6Irmv3vunzLVUFS-25" value="项目数据" style="sketch=0;outlineConnect=0;fontColor=#232F3E;gradientColor=none;fillColor=#232F3D;strokeColor=none;dashed=0;verticalLabelPosition=bottom;verticalAlign=top;align=center;html=1;fontSize=12;fontStyle=0;aspect=fixed;pointerEvents=1;shape=mxgraph.aws4.json_script;" vertex="1" parent="1">
          <mxGeometry x="1332" y="381.5" width="57" height="78" as="geometry" />
        </mxCell>
        <mxCell id="tnwIW6Irmv3vunzLVUFS-26" value="Log" style="sketch=0;outlineConnect=0;fontColor=#232F3E;gradientColor=none;fillColor=#232F3D;strokeColor=none;dashed=0;verticalLabelPosition=bottom;verticalAlign=top;align=center;html=1;fontSize=12;fontStyle=0;aspect=fixed;pointerEvents=1;shape=mxgraph.aws4.logs;" vertex="1" parent="1">
          <mxGeometry x="1331" y="221.5" width="57" height="78" as="geometry" />
        </mxCell>
        <mxCell id="tnwIW6Irmv3vunzLVUFS-46" style="rounded=0;orthogonalLoop=1;jettySize=auto;html=1;endArrow=none;endFill=0;" edge="1" parent="1" source="tnwIW6Irmv3vunzLVUFS-28" target="tnwIW6Irmv3vunzLVUFS-23">
          <mxGeometry relative="1" as="geometry" />
        </mxCell>
        <mxCell id="tnwIW6Irmv3vunzLVUFS-28" value="交换机" style="image;html=1;image=img/lib/clip_art/networking/Router_Icon_128x128.png" vertex="1" parent="1">
          <mxGeometry x="1060" y="381" width="80" height="80" as="geometry" />
        </mxCell>
        <mxCell id="tnwIW6Irmv3vunzLVUFS-38" style="rounded=0;orthogonalLoop=1;jettySize=auto;html=1;endArrow=none;endFill=0;" edge="1" parent="1" source="tnwIW6Irmv3vunzLVUFS-31" target="tnwIW6Irmv3vunzLVUFS-1">
          <mxGeometry relative="1" as="geometry" />
        </mxCell>
        <mxCell id="tnwIW6Irmv3vunzLVUFS-31" value="Internet" style="sketch=0;outlineConnect=0;fontColor=#232F3E;gradientColor=none;fillColor=#232F3D;strokeColor=none;dashed=0;verticalLabelPosition=bottom;verticalAlign=top;align=center;html=1;fontSize=12;fontStyle=0;aspect=fixed;pointerEvents=1;shape=mxgraph.aws4.globe;" vertex="1" parent="1">
          <mxGeometry x="480" y="380" width="78" height="78" as="geometry" />
        </mxCell>
        <mxCell id="tnwIW6Irmv3vunzLVUFS-52" value="个人翻译者/潜在使用者" style="text;html=1;align=center;verticalAlign=middle;resizable=0;points=[];autosize=1;strokeColor=none;fillColor=none;" vertex="1" parent="1">
          <mxGeometry x="488" y="50" width="150" height="30" as="geometry" />
        </mxCell>
        <mxCell id="tnwIW6Irmv3vunzLVUFS-53" value="中文化小组1" style="text;html=1;align=center;verticalAlign=middle;resizable=0;points=[];autosize=1;strokeColor=none;fillColor=none;" vertex="1" parent="1">
          <mxGeometry x="254" y="193" width="90" height="30" as="geometry" />
        </mxCell>
        <mxCell id="tnwIW6Irmv3vunzLVUFS-54" value="中文化小组2" style="text;html=1;align=center;verticalAlign=middle;resizable=0;points=[];autosize=1;strokeColor=none;fillColor=none;" vertex="1" parent="1">
          <mxGeometry x="248" y="424" width="90" height="30" as="geometry" />
        </mxCell>
        <mxCell id="tnwIW6Irmv3vunzLVUFS-55" value="中文化小组3" style="text;html=1;align=center;verticalAlign=middle;resizable=0;points=[];autosize=1;strokeColor=none;fillColor=none;" vertex="1" parent="1">
          <mxGeometry x="248" y="620.5" width="90" height="30" as="geometry" />
        </mxCell>
      </root>
    </mxGraphModel>
  </diagram>
</mxfile>
